<svg xmlns="http://www.w3.org/2000/svg" viewBox="0 0 200 200">
  <circle cx="100" cy="100" r="95" fill="white" stroke="black" stroke-width="2"/>
  <circle cx="100" cy="100" r="70" fill="#2d5f3f"/>
  <g transform="translate(100, 100)">
    <path d="M 0,-60 L 15,-15 L 60,0 L 15,15 L 0,60 L -15,15 L -60,0 L -15,-15 Z" fill="white"/>
  </g>
  <g transform="translate(100, 100)">
    <path d="M -10,-5 C -10,-15 -5,-20 0,-20 C 5,-20 10,-15 10,-5 L 8,0 C 10,5 12,8 12,15 C 12,20 8,25 0,25 C -8,25 -12,20 -12,15 C -12,8 -10,5 -8,0 Z M -2,15 L 2,15 L 4,8 L 0,3 L -4,8 Z" fill="#c13832"/>
    <circle cx="-3" cy="-12" r="2" fill="white"/>
    <circle cx="3" cy="-12" r="2" fill="white"/>
    <circle cx="0" cy="-5" r="2" fill="white"/>
  </g>
  <text x="100" y="30" font-family="Arial, sans-serif" font-size="16" font-weight="bold" text-anchor="middle" fill="black">BURHANI GUARDS TRUST</text>
  <text x="100" y="180" font-family="Arial, sans-serif" font-size="16" font-weight="bold" text-anchor="middle" fill="black">PAKISTAN</text>
  <text x="25" y="105" font-family="Arial, sans-serif" font-size="12" text-anchor="middle" fill="black">★</text>
  <text x="175" y="105" font-family="Arial, sans-serif" font-size="12" text-anchor="middle" fill="black">★</text>
</svg>
